<?xml version="1.0" encoding="UTF-8" standalone="no"?>
<!DOCTYPE svg PUBLIC "-//W3C//DTD SVG 1.1//EN"
 "http://www.w3.org/Graphics/SVG/1.1/DTD/svg11.dtd">
<!-- Generated by graphviz version 2.47.1 (20210417.1919)
 -->
<!-- Title: G Pages: 1 -->
<svg width="354pt" height="449pt"
 viewBox="0.00 0.00 353.50 449.00" xmlns="http://www.w3.org/2000/svg" xmlns:xlink="http://www.w3.org/1999/xlink">
<g id="graph0" class="graph" transform="scale(1 1) rotate(0) translate(4 445)">
<title>G</title>
<polygon fill="white" stroke="transparent" points="-4,4 -4,-445 349.5,-445 349.5,4 -4,4"/>
<g id="clust2" class="cluster">
<title>cluster2</title>
<polygon fill="lightgrey" stroke="black" points="37.5,-320 37.5,-374 129.5,-374 129.5,-320 37.5,-320"/>
</g>
<g id="clust1" class="cluster">
<title>cluster1</title>
<polygon fill="lightgrey" stroke="black" points="141.5,-67 141.5,-285 283.5,-285 283.5,-67 141.5,-67"/>
</g>
<!-- n0 -->
<g id="node1" class="node">
<title>n0</title>
<polygon fill="none" stroke="#6bd57d" points="75,-441 0,-441 0,-403 75,-403 75,-441"/>
<text text-anchor="middle" x="37.5" y="-425.8" font-family="Times New Roman,serif" font-size="14.00">Input(1v1)</text>
<text text-anchor="middle" x="37.5" y="-410.8" font-family="Times New Roman,serif" font-size="14.00">m[3, 3]</text>
</g>
<!-- n8 -->
<g id="node11" class="node">
<title>n8</title>
<polygon fill="#6bd57d" stroke="#6bd57d" points="121,-366 46,-366 46,-328 121,-328 121,-366"/>
<text text-anchor="middle" x="83.5" y="-350.8" font-family="Times New Roman,serif" font-size="14.00">MatMul</text>
<text text-anchor="middle" x="83.5" y="-335.8" font-family="Times New Roman,serif" font-size="14.00">[1, 1, 3, 1]</text>
</g>
<!-- n0&#45;&gt;n8 -->
<g id="edge2" class="edge">
<title>n0&#45;&gt;n8</title>
<path fill="none" stroke="black" d="M48.87,-402.96C54.23,-394.44 60.74,-384.12 66.66,-374.72"/>
<polygon fill="black" stroke="black" points="69.73,-376.42 72.1,-366.09 63.81,-372.68 69.73,-376.42"/>
</g>
<!-- n2 -->
<g id="node2" class="node">
<title>n2</title>
<polygon fill="none" stroke="#6bd57d" points="168,-441 93,-441 93,-403 168,-403 168,-441"/>
<text text-anchor="middle" x="130.5" y="-425.8" font-family="Times New Roman,serif" font-size="14.00">Input(2v1)</text>
<text text-anchor="middle" x="130.5" y="-410.8" font-family="Times New Roman,serif" font-size="14.00">x[3, 1]</text>
</g>
<!-- n2&#45;&gt;n8 -->
<g id="edge8" class="edge">
<title>n2&#45;&gt;n8</title>
<path fill="none" stroke="black" d="M118.88,-402.96C113.4,-394.44 106.75,-384.12 100.7,-374.72"/>
<polygon fill="black" stroke="black" points="103.5,-372.6 95.15,-366.09 97.62,-376.39 103.5,-372.6"/>
</g>
<!-- n4 -->
<g id="node3" class="node">
<title>n4</title>
<polygon fill="none" stroke="#6bd57d" points="214,-366 139,-366 139,-328 214,-328 214,-366"/>
<text text-anchor="middle" x="176.5" y="-350.8" font-family="Times New Roman,serif" font-size="14.00">Input(3v1)</text>
<text text-anchor="middle" x="176.5" y="-335.8" font-family="Times New Roman,serif" font-size="14.00">y[3, 1]</text>
</g>
<!-- n17 -->
<g id="node8" class="node">
<title>n17</title>
<polygon fill="#6bd57d" stroke="#6bd57d" points="203.5,-277 149.5,-277 149.5,-239 203.5,-239 203.5,-277"/>
<text text-anchor="middle" x="176.5" y="-261.8" font-family="Times New Roman,serif" font-size="14.00">Mul</text>
<text text-anchor="middle" x="176.5" y="-246.8" font-family="Times New Roman,serif" font-size="14.00">[3, 1]</text>
</g>
<!-- n4&#45;&gt;n17 -->
<g id="edge4" class="edge">
<title>n4&#45;&gt;n17</title>
<path fill="none" stroke="black" d="M170.91,-327.97C169.69,-316.19 169.43,-300.56 170.14,-287.16"/>
<polygon fill="black" stroke="black" points="173.64,-287.24 170.91,-277 166.66,-286.71 173.64,-287.24"/>
</g>
<!-- n4&#45;&gt;n17 -->
<g id="edge5" class="edge">
<title>n4&#45;&gt;n17</title>
<path fill="none" stroke="black" d="M182.09,-327.97C183.31,-316.19 183.57,-300.56 182.86,-287.16"/>
<polygon fill="black" stroke="black" points="186.34,-286.71 182.09,-277 179.36,-287.24 186.34,-286.71"/>
</g>
<!-- n21 -->
<g id="node4" class="node">
<title>n21</title>
<text text-anchor="middle" x="259.5" y="-343.3" font-family="Times New Roman,serif" font-size="14.00">2E0</text>
</g>
<!-- n14 -->
<g id="node7" class="node">
<title>n14</title>
<polygon fill="#6bd57d" stroke="#6bd57d" points="275.5,-277 221.5,-277 221.5,-239 275.5,-239 275.5,-277"/>
<text text-anchor="middle" x="248.5" y="-261.8" font-family="Times New Roman,serif" font-size="14.00">Mul</text>
<text text-anchor="middle" x="248.5" y="-246.8" font-family="Times New Roman,serif" font-size="14.00">[3, 1]</text>
</g>
<!-- n21&#45;&gt;n14 -->
<g id="edge11" class="edge">
<title>n21&#45;&gt;n14</title>
<path fill="none" stroke="black" d="M257.33,-328.81C255.82,-316.89 253.78,-300.76 252.04,-287"/>
<polygon fill="black" stroke="black" points="255.51,-286.53 250.78,-277.05 248.56,-287.41 255.51,-286.53"/>
<text text-anchor="middle" x="259.5" y="-298.8" font-family="Times New Roman,serif" font-size="14.00">V</text>
</g>
<!-- n22 -->
<g id="node5" class="node">
<title>n22</title>
<text text-anchor="middle" x="318.5" y="-179.3" font-family="Times New Roman,serif" font-size="14.00">1E0</text>
</g>
<!-- n24 -->
<g id="node10" class="node">
<title>n24</title>
<polygon fill="#6bd57d" stroke="#6bd57d" points="274.5,-113 220.5,-113 220.5,-75 274.5,-75 274.5,-113"/>
<text text-anchor="middle" x="247.5" y="-97.8" font-family="Times New Roman,serif" font-size="14.00">Add</text>
<text text-anchor="middle" x="247.5" y="-82.8" font-family="Times New Roman,serif" font-size="14.00">[3, 1]</text>
</g>
<!-- n22&#45;&gt;n24 -->
<g id="edge9" class="edge">
<title>n22&#45;&gt;n24</title>
<path fill="none" stroke="black" d="M304.47,-164.81C294.27,-152.31 280.28,-135.16 268.71,-120.99"/>
<polygon fill="black" stroke="black" points="271.27,-118.59 262.23,-113.05 265.84,-123.01 271.27,-118.59"/>
<text text-anchor="middle" x="291.5" y="-134.8" font-family="Times New Roman,serif" font-size="14.00">V</text>
</g>
<!-- n25 -->
<g id="node6" class="node">
<title>n25</title>
<polygon fill="none" stroke="#6bd57d" points="290,-38 205,-38 205,0 290,0 290,-38"/>
<text text-anchor="middle" x="247.5" y="-22.8" font-family="Times New Roman,serif" font-size="14.00">Output(4v1)</text>
<text text-anchor="middle" x="247.5" y="-7.8" font-family="Times New Roman,serif" font-size="14.00">z[3, 1]</text>
</g>
<!-- n20 -->
<g id="node9" class="node">
<title>n20</title>
<polygon fill="#6bd57d" stroke="#6bd57d" points="273.5,-202 219.5,-202 219.5,-164 273.5,-164 273.5,-202"/>
<text text-anchor="middle" x="246.5" y="-186.8" font-family="Times New Roman,serif" font-size="14.00">Add</text>
<text text-anchor="middle" x="246.5" y="-171.8" font-family="Times New Roman,serif" font-size="14.00">[3, 1]</text>
</g>
<!-- n14&#45;&gt;n20 -->
<g id="edge3" class="edge">
<title>n14&#45;&gt;n20</title>
<path fill="none" stroke="black" d="M248.01,-238.96C247.78,-230.88 247.52,-221.18 247.27,-212.18"/>
<polygon fill="black" stroke="black" points="250.77,-211.99 247,-202.09 243.77,-212.18 250.77,-211.99"/>
</g>
<!-- n17&#45;&gt;n20 -->
<g id="edge6" class="edge">
<title>n17&#45;&gt;n20</title>
<path fill="none" stroke="black" d="M193.8,-238.96C202.3,-230.09 212.69,-219.26 221.99,-209.56"/>
<polygon fill="black" stroke="black" points="224.76,-211.73 229.15,-202.09 219.71,-206.89 224.76,-211.73"/>
</g>
<!-- n20&#45;&gt;n24 -->
<g id="edge7" class="edge">
<title>n20&#45;&gt;n24</title>
<path fill="none" stroke="black" d="M246.71,-163.97C246.84,-152.19 247.02,-136.56 247.18,-123.16"/>
<polygon fill="black" stroke="black" points="250.68,-123.04 247.29,-113 243.68,-122.96 250.68,-123.04"/>
</g>
<!-- n24&#45;&gt;n25 -->
<g id="edge10" class="edge">
<title>n24&#45;&gt;n25</title>
<path fill="none" stroke="black" d="M247.5,-74.96C247.5,-66.88 247.5,-57.18 247.5,-48.18"/>
<polygon fill="black" stroke="black" points="251,-48.09 247.5,-38.09 244,-48.09 251,-48.09"/>
</g>
<!-- n8&#45;&gt;n14 -->
<g id="edge1" class="edge">
<title>n8&#45;&gt;n14</title>
<path fill="none" stroke="black" d="M114.42,-327.88C119.41,-325.15 124.56,-322.43 129.5,-320 165.43,-302.34 177.6,-304.62 212.5,-285 213.8,-284.27 215.11,-283.5 216.42,-282.7"/>
<polygon fill="black" stroke="black" points="218.52,-285.51 224.99,-277.13 214.7,-279.65 218.52,-285.51"/>
</g>
</g>
</svg>
